<svg width="113" height="47" viewBox="0 0 113 47" fill="none" xmlns="http://www.w3.org/2000/svg">
<path fill-rule="evenodd" clip-rule="evenodd" d="M37.884 19.7192L39.9672 23.4588C39.9887 23.4974 39.9997 23.5391 39.9999 23.5809C39.9999 23.6148 39.9931 23.649 39.9792 23.6817L36.8019 31.0006C36.8012 31.0021 36.8 31.0032 36.7988 31.0042C36.7975 31.0051 36.7963 31.0059 36.7958 31.007C36.7944 31.0097 36.7939 31.0125 36.7934 31.0153C36.7927 31.0185 36.7922 31.0217 36.7902 31.0245L31.4181 40.6368L29.85 46.7701C29.8464 46.7837 29.8395 46.7955 29.8327 46.8075L29.8268 46.818C29.8212 46.8302 29.8178 46.8425 29.8102 46.8536C29.7927 46.8781 29.7709 46.8985 29.7472 46.9178C29.7416 46.923 29.7367 46.9294 29.7297 46.9347C29.6962 46.9568 29.6591 46.9732 29.6174 46.9848L29.6147 46.9861L29.6103 46.9878C29.5761 46.9959 29.5419 47 29.5082 47C29.4999 47 29.4916 47 29.4831 46.9994C29.4218 46.9959 29.3678 46.9749 29.3197 46.9487C29.31 46.9434 29.3022 46.9388 29.2931 46.9329C29.2428 46.8991 29.2052 46.8553 29.1835 46.8028C29.1813 46.7987 29.1757 46.797 29.1745 46.7929L26.58 39.6467L20.6791 36.7104L13.3884 36.1929L11.6635 40.5364C11.6342 40.6104 11.5719 40.6693 11.4931 40.7036C11.4445 40.7248 11.3893 40.7365 11.3317 40.7365H10.3698L8.35246 46.7503C8.31047 46.8769 8.17229 46.9633 8.01653 46.9633L7.99748 46.9627C7.83342 46.9557 7.69866 46.8536 7.67204 46.7188L6.49846 40.7371H5.54851C5.36614 40.7371 5.21453 40.6198 5.20061 40.4681L4.36296 31.532L0.231615 30.3034C0.104418 30.2655 0.0157947 30.1698 0.0018787 30.0584C-0.0120373 29.9464 0.0521717 29.8378 0.167406 29.7789L4.19866 27.73C4.20354 27.7273 4.20842 27.7262 4.2133 27.725C4.21721 27.7242 4.22087 27.7233 4.22453 27.7218C4.22673 27.7207 4.22844 27.7191 4.23015 27.7175C4.2321 27.7157 4.23381 27.714 4.2365 27.713L7.976 26.2983C7.98381 26.2952 7.9926 26.2941 8.00163 26.293C8.00774 26.2923 8.01409 26.2915 8.01995 26.2901C8.04851 26.2831 8.07585 26.2755 8.10588 26.2744C8.1093 26.2744 8.11223 26.2726 8.11565 26.2726L17.4462 26.1752L27.4733 25.2195L25.9394 5.65195C25.9384 5.63669 25.9386 5.6218 25.9404 5.60721C25.9428 5.58387 25.9484 5.56128 25.9574 5.53937L25.9582 5.5376L27.4035 2.02607C27.426 1.97065 27.4684 1.92222 27.5251 1.88721L30.4604 0.057653C30.5737 -0.0135445 30.728 -0.0187935 30.8503 0.0418755C30.9711 0.103155 31.0361 0.219823 31.0143 0.337103L30.1559 4.88361L36.8 3.88364C36.9277 3.86381 37.059 3.90699 37.1386 3.99332L38.4828 5.45652C38.5834 5.5662 38.5778 5.71964 38.4694 5.82465L33.6977 10.4318L37.884 19.7192ZM37.7548 5.6222L36.714 4.48865L30.2851 5.45652L33.3532 9.87177L37.7548 5.6222ZM30.1894 0.953161L28.028 2.30085L26.8007 5.28092L29.4294 4.98337L30.1894 0.953161ZM27.0766 39.215L28.6303 39.988L27.5187 25.8024L17.7167 26.7364L16.133 30.1856L21.0319 36.2081L27.0048 39.1794C27.0214 39.1853 27.0365 39.1923 27.0512 39.2003L27.0766 39.215ZM5.17668 32.7467L7.52117 27.1104L4.74724 28.1599L5.17668 32.7467ZM4.07585 28.4756L1.15642 29.9592L4.30217 30.895L4.07585 28.4756ZM7.20598 40.7371L8.10588 45.3239L9.6447 40.7371H7.20598ZM5.87053 40.1537H11.0788L12.8107 35.7921L12.8132 35.7885L12.8156 35.7857L12.8158 35.7822L12.8163 35.7793L16.9552 26.7644L8.36785 26.8537L5.32268 34.1737C5.32146 34.1768 5.31853 34.1788 5.31609 34.181C5.31413 34.1826 5.31218 34.1843 5.31096 34.1866L5.87053 40.1537ZM20.0876 36.0832L15.8283 30.8489L13.6357 35.6252L20.0876 36.0832ZM28.9614 44.1956L28.6869 40.6951L27.4706 40.0901L28.9614 44.1956ZM30.7426 40.4816C30.7482 40.46 30.7568 40.439 30.7677 40.4191L36.1308 30.8238L37.2072 19.8726L32.9816 10.4978L29.5488 5.55802L26.6562 5.8859L29.6921 44.5917L30.7426 40.4816ZM37.8024 20.9536L37.0353 28.7515L39.2736 23.5953L37.8024 20.9536ZM46.288 33.16C46.912 33.8 47.7919 34.12 48.9279 34.12C49.456 34.12 49.9679 34.032 50.464 33.856L50.3439 32.44C50.0239 32.584 49.6398 32.656 49.1918 32.656C48.488 32.656 47.9599 32.464 47.6078 32.08C47.256 31.68 47.08 31.104 47.08 30.352V16.192H45.3759V30.496C45.3759 31.632 45.6799 32.52 46.288 33.16ZM60.0358 34H61.6679V21.376H59.9638V23.776C59.4357 22.96 58.7558 22.344 57.9238 21.928C57.1078 21.496 56.1879 21.28 55.1637 21.28C53.9799 21.28 52.9079 21.552 51.9477 22.096C50.9877 22.624 50.2358 23.376 49.6918 24.352C49.1479 25.328 48.8759 26.44 48.8759 27.688C48.8759 28.936 49.1479 30.048 49.6918 31.024C50.2358 32 50.9877 32.76 51.9477 33.304C52.9079 33.848 53.9799 34.12 55.1637 34.12C56.2199 34.12 57.1637 33.896 57.9958 33.448C58.8439 33 59.5239 32.352 60.0358 31.504V34ZM57.6838 32.008C56.9799 32.408 56.1879 32.608 55.3078 32.608C54.4118 32.608 53.6037 32.408 52.8837 32.008C52.1799 31.592 51.6198 31.008 51.2038 30.256C50.8039 29.504 50.6037 28.648 50.6037 27.688C50.6037 26.728 50.8039 25.872 51.2038 25.12C51.6198 24.368 52.1799 23.792 52.8837 23.392C53.6037 22.976 54.4118 22.768 55.3078 22.768C56.1879 22.768 56.9799 22.976 57.6838 23.392C58.4037 23.792 58.9638 24.368 59.3637 25.12C59.7797 25.872 59.9877 26.728 59.9877 27.688C59.9877 28.648 59.7797 29.504 59.3637 30.256C58.9638 31.008 58.4037 31.592 57.6838 32.008ZM69.0534 33.904C69.5175 33.744 69.9093 33.52 70.2294 33.232L69.6293 32.008C69.1493 32.44 68.5253 32.656 67.7575 32.656C67.0534 32.656 66.5175 32.464 66.1493 32.08C65.7814 31.68 65.5973 31.104 65.5973 30.352V22.816H69.4135V21.376H65.5973V18.616H63.8935V30.448C63.8935 31.616 64.2133 32.52 64.8534 33.16C65.4933 33.8 66.4054 34.12 67.5895 34.12C68.1015 34.12 68.5895 34.048 69.0534 33.904ZM72.622 21.376H70.9181V34H72.622V21.376ZM70.8942 18.256C71.1342 18.496 71.4301 18.616 71.7822 18.616C72.1342 18.616 72.4301 18.496 72.6701 18.256C72.9101 18.016 73.0302 17.72 73.0302 17.368C73.0302 17.048 72.9101 16.776 72.6701 16.552C72.4301 16.312 72.1342 16.192 71.7822 16.192C71.4301 16.192 71.1342 16.312 70.8942 16.552C70.6542 16.792 70.5341 17.072 70.5341 17.392C70.5341 17.728 70.6542 18.016 70.8942 18.256ZM85.1635 22.672C84.2355 21.744 82.9794 21.28 81.3954 21.28C80.3075 21.28 79.3473 21.496 78.5153 21.928C77.6994 22.344 77.0595 22.936 76.5954 23.704V21.376H74.9633V34H76.6674V27.376C76.6674 25.952 77.0595 24.84 77.8434 24.04C78.6435 23.224 79.7233 22.816 81.0834 22.816C82.2995 22.816 83.2355 23.16 83.8915 23.848C84.5475 24.536 84.8754 25.536 84.8754 26.848V34H86.5795V26.68C86.5795 24.92 86.1073 23.584 85.1635 22.672ZM96.4125 32.2C95.7565 32.472 95.0365 32.608 94.2524 32.608C93.0844 32.608 92.0766 32.32 91.2284 31.744C90.3964 31.152 89.8205 30.344 89.5004 29.32L99.6725 27.3421C99.6677 27.4563 99.665 27.5716 99.665 27.688C99.665 28.92 99.9447 30.024 100.505 31C101.065 31.976 101.833 32.744 102.809 33.304C103.785 33.848 104.881 34.12 106.097 34.12C107.313 34.12 108.409 33.848 109.385 33.304C110.361 32.744 111.121 31.976 111.665 31C112.225 30.024 112.505 28.92 112.505 27.688C112.505 26.456 112.225 25.352 111.665 24.376C111.121 23.4 110.361 22.64 109.385 22.096C108.409 21.552 107.313 21.28 106.097 21.28C104.881 21.28 103.785 21.552 102.809 22.096C101.833 22.64 101.065 23.4 100.505 24.376C100.154 24.9869 99.9135 25.6479 99.7824 26.3591C99.6564 25.5674 99.3971 24.8424 99.0046 24.184C98.4765 23.272 97.7565 22.56 96.8444 22.048C95.9484 21.536 94.9406 21.28 93.8205 21.28C92.6205 21.28 91.5485 21.552 90.6044 22.096C89.6606 22.64 88.9164 23.4 88.3725 24.376C87.8444 25.352 87.5805 26.456 87.5805 27.688C87.5805 28.92 87.8605 30.024 88.4206 31C88.9804 31.976 89.7646 32.744 90.7724 33.304C91.7804 33.848 92.9325 34.12 94.2284 34.12C95.2365 34.12 96.1564 33.944 96.9885 33.592C97.8205 33.24 98.5165 32.728 99.0766 32.056L98.1164 30.952C97.6525 31.496 97.0844 31.912 96.4125 32.2ZM91.4445 23.368C92.1486 22.952 92.9406 22.744 93.8205 22.744C94.9565 22.744 95.9164 23.088 96.7006 23.776C97.4845 24.448 97.9726 25.312 98.1645 26.368L89.2604 28.096C89.2446 27.984 89.2365 27.808 89.2365 27.568C89.2365 26.624 89.4284 25.792 89.8124 25.072C90.2126 24.336 90.7565 23.768 91.4445 23.368ZM108.497 32.008C107.793 32.408 106.993 32.608 106.097 32.608C105.201 32.608 104.393 32.408 103.673 32.008C102.969 31.592 102.409 31.008 101.993 30.256C101.593 29.504 101.393 28.648 101.393 27.688C101.393 26.728 101.593 25.872 101.993 25.12C102.409 24.368 102.969 23.792 103.673 23.392C104.393 22.976 105.201 22.768 106.097 22.768C106.993 22.768 107.793 22.976 108.497 23.392C109.217 23.792 109.777 24.368 110.177 25.12C110.577 25.872 110.777 26.728 110.777 27.688C110.777 28.648 110.577 29.504 110.177 30.256C109.777 31.008 109.217 31.592 108.497 32.008Z" fill="#9249FF"/>
</svg>
